<?xml version="1.0" encoding="utf-8"?>
<!-- Generator: Adobe Illustrator 16.0.3, SVG Export Plug-In . SVG Version: 6.00 Build 0)  -->
<!DOCTYPE svg PUBLIC "-//W3C//DTD SVG 1.1//EN" "http://www.w3.org/Graphics/SVG/1.1/DTD/svg11.dtd">
<svg version="1.1" id="Capa_1" xmlns="http://www.w3.org/2000/svg" xmlns:xlink="http://www.w3.org/1999/xlink" x="0px" y="0px"
	 width="128px" height="128px" viewBox="0 0 128 128" enable-background="new 0 0 128 128" xml:space="preserve">
<rect fill="#43AED6" width="128" height="128"/>
<g>
	<path fill="#FAFAFA" d="M57.212,20.054c-23.432,0-42.427,17.03-42.427,38.038c0,7.74,2.587,14.938,7.018,20.945
		c-0.582,6.941-2.257,16.718-7.018,21.479c0,0,14.546-2.041,24.398-7.99c5.474,2.307,11.581,3.604,18.028,3.604
		c23.432,0,42.428-17.029,42.428-38.037S80.643,20.054,57.212,20.054z"/>
	<path fill="#CFD8DC" d="M113.215,43.521c0-21.008-18.994-38.038-42.426-38.038c-16.921,0-31.524,8.882-38.336,21.728
		c6.97-4.499,15.515-7.158,24.759-7.158c23.431,0,42.427,17.03,42.427,38.038c0,8.035-2.787,15.483-7.531,21.624
		c9.504,4.592,21.107,6.23,21.107,6.23c-4.762-4.76-6.436-14.537-7.018-21.479C110.629,58.46,113.215,51.263,113.215,43.521z"/>
</g>
<g enable-background="new    ">
	<path fill="#78909C" d="M35.41,111.51h7.646v9.994c-1.239,0.404-2.406,0.688-3.5,0.85c-1.094,0.163-2.212,0.244-3.355,0.244
		c-2.909,0-5.131-0.854-6.665-2.564c-1.534-1.709-2.3-4.163-2.3-7.363c0-3.111,0.89-5.537,2.669-7.277
		c1.78-1.74,4.248-2.609,7.403-2.609c1.978,0,3.885,0.395,5.722,1.186l-1.358,3.27c-1.406-0.702-2.87-1.055-4.39-1.055
		c-1.767,0-3.182,0.594-4.245,1.78s-1.595,2.782-1.595,4.786c0,2.092,0.429,3.688,1.285,4.792c0.857,1.103,2.103,1.654,3.738,1.654
		c0.853,0,1.718-0.088,2.597-0.264v-4.021H35.41V111.51z"/>
	<path fill="#78909C" d="M63.636,112.512c0,3.174-0.903,5.604-2.709,7.291c-1.807,1.688-4.415,2.531-7.825,2.531h-5.458V103.06
		h6.051c3.146,0,5.59,0.831,7.33,2.491C62.766,107.213,63.636,109.533,63.636,112.512z M59.391,112.617
		c0-4.139-1.828-6.209-5.484-6.209h-2.175v12.551h1.753C57.422,118.959,59.391,116.846,59.391,112.617z"/>
	<path fill="#78909C" d="M80.945,109.071c0,2.074-0.648,3.661-1.944,4.759c-1.296,1.1-3.14,1.648-5.53,1.648h-1.754v6.855h-4.086
		V103.06h6.156c2.338,0,4.115,0.503,5.333,1.51C80.337,105.575,80.945,107.076,80.945,109.071z M71.717,112.13h1.346
		c1.256,0,2.197-0.248,2.82-0.745c0.625-0.496,0.937-1.219,0.937-2.168c0-0.958-0.262-1.666-0.784-2.123
		c-0.523-0.457-1.343-0.686-2.459-0.686h-1.859V112.13z"/>
	<path fill="#78909C" d="M88.672,114.938v7.396h-4.088V103.06H90.2c2.619,0,4.558,0.477,5.814,1.431
		c1.257,0.953,1.885,2.401,1.885,4.344c0,1.134-0.312,2.143-0.936,3.025c-0.624,0.884-1.508,1.576-2.65,2.076
		c2.9,4.334,4.79,7.133,5.67,8.398h-4.535l-4.602-7.396H88.672z M88.672,111.615h1.317c1.293,0,2.246-0.215,2.861-0.646
		s0.923-1.107,0.923-2.03c0-0.914-0.314-1.564-0.942-1.951c-0.629-0.387-1.602-0.58-2.92-0.58h-1.239V111.615z"/>
</g>
<g enable-background="new    ">
	<path fill="#FAFAFA" d="M34.749,112.176h7.646v9.994c-1.239,0.404-2.406,0.688-3.5,0.85c-1.094,0.163-2.212,0.244-3.355,0.244
		c-2.909,0-5.131-0.854-6.665-2.564c-1.534-1.709-2.3-4.163-2.3-7.363c0-3.111,0.89-5.537,2.669-7.277
		c1.78-1.74,4.248-2.609,7.403-2.609c1.978,0,3.885,0.395,5.722,1.186l-1.358,3.27c-1.406-0.702-2.87-1.055-4.39-1.055
		c-1.767,0-3.182,0.594-4.245,1.78s-1.595,2.782-1.595,4.786c0,2.092,0.429,3.688,1.285,4.792c0.857,1.103,2.103,1.654,3.738,1.654
		c0.853,0,1.718-0.088,2.597-0.264v-4.021h-3.652V112.176z"/>
	<path fill="#FAFAFA" d="M62.975,113.178c0,3.174-0.903,5.604-2.709,7.291c-1.807,1.688-4.415,2.531-7.825,2.531h-5.458v-19.274
		h6.051c3.146,0,5.59,0.831,7.33,2.491C62.104,107.879,62.975,110.199,62.975,113.178z M58.729,113.283
		c0-4.139-1.828-6.209-5.484-6.209H51.07v12.551h1.753C56.761,119.625,58.729,117.512,58.729,113.283z"/>
	<path fill="#FAFAFA" d="M80.285,109.737c0,2.074-0.648,3.661-1.945,4.759c-1.297,1.1-3.14,1.648-5.53,1.648h-1.753V123h-4.088
		v-19.274h6.157c2.338,0,4.115,0.503,5.333,1.51C79.676,106.241,80.285,107.742,80.285,109.737z M71.057,112.796H72.4
		c1.258,0,2.197-0.248,2.822-0.745c0.623-0.496,0.936-1.219,0.936-2.168c0-0.958-0.262-1.666-0.784-2.123
		c-0.523-0.457-1.343-0.686-2.459-0.686h-1.858V112.796z"/>
	<path fill="#FAFAFA" d="M88.01,115.604V123h-4.086v-19.274h5.615c2.619,0,4.558,0.477,5.814,1.431
		c1.257,0.953,1.885,2.401,1.885,4.344c0,1.134-0.312,2.143-0.936,3.025c-0.624,0.884-1.508,1.576-2.65,2.076
		c2.9,4.334,4.79,7.133,5.67,8.398h-4.535l-4.602-7.396H88.01z M88.01,112.281h1.318c1.293,0,2.246-0.215,2.861-0.646
		s0.923-1.107,0.923-2.03c0-0.914-0.314-1.564-0.942-1.951c-0.629-0.387-1.602-0.58-2.92-0.58h-1.24V112.281z"/>
</g>
<g>
	<path fill="#607D8B" d="M70.568,51.335v-6.951c0-7.681-6.228-13.907-13.906-13.907c-7.681,0-13.906,6.226-13.906,13.907v6.951
		c-2.56,0-4.635,2.076-4.635,4.635v23.178c0,2.561,2.076,4.635,4.635,4.635h27.813c2.56,0,4.635-2.074,4.635-4.635V55.971
		C75.203,53.411,73.128,51.335,70.568,51.335z M47.391,44.384c0-5.121,4.151-9.271,9.271-9.271c5.121,0,9.271,4.151,9.271,9.271
		v6.951H47.391V44.384z"/>
	<path fill="#FAFAFA" d="M54.344,69.236v2.959c0,1.279,1.039,2.318,2.318,2.318c1.279,0,2.318-1.039,2.318-2.318v-2.959
		c1.378-0.805,2.318-2.283,2.318-3.993c0-2.562-2.076-4.636-4.636-4.636s-4.635,2.075-4.635,4.636
		C52.027,66.953,52.966,68.434,54.344,69.236z"/>
</g>
<g>
	<g>
		<path fill="#85A61B" d="M61.551,86.301c-1.559,1.557-4.089,1.557-5.646,0l-8.748-8.749c-1.559-1.558-1.559-4.088,0-5.646
			c1.558-1.561,4.086-1.561,5.645,0l5.212,5.212c0.394,0.393,1.033,0.393,1.427,0l14.114-14.114c1.559-1.559,4.088-1.559,5.646,0
			c0.748,0.749,1.168,1.764,1.168,2.823c0,1.059-0.42,2.073-1.168,2.823L61.551,86.301z"/>
	</g>
</g>
</svg>
